<?xml version="1.0" encoding="UTF-8" standalone="no"?>
<!DOCTYPE svg PUBLIC "-//W3C//DTD SVG 1.1//EN" "http://www.w3.org/Graphics/SVG/1.1/DTD/svg11.dtd">
<svg version="1.1" xmlns="http://www.w3.org/2000/svg" xmlns:xlink="http://www.w3.org/1999/xlink" preserveAspectRatio="xMidYMid meet" viewBox="0 0 640 640" width="640" height="640"><defs><path d="M640 640L640 0L564.55 0C520.19 12.45 492.46 20.23 481.36 23.34C433.28 36.83 388.03 58.9 347.8 88.49C325.01 105.25 359.97 79.54 347.8 88.49C275.74 141.48 231.49 224.21 227.42 313.56C226.4 336.05 227.43 313.49 225.82 348.8C223.7 395.13 192.78 435.17 148.49 448.93C118.79 458.15 130.62 454.48 107.7 461.6C43.65 481.49 0 540.76 0 607.83C0 612.12 0 622.84 0 640" id="bguFw4RNb"></path></defs><g><g><g><use xlink:href="#bguFw4RNb" opacity="1" fill="#fed766" fill-opacity="1"></use><g><use xlink:href="#bguFw4RNb" opacity="1" fill-opacity="0" stroke="#000000" stroke-width="0" stroke-opacity="1"></use></g></g></g></g></svg>